<?xml version="1.0" encoding="utf-8"?>
<!-- Generator: Adobe Illustrator 24.0.0, SVG Export Plug-In . SVG Version: 6.00 Build 0)  -->
<svg version="1.1" id="Layer_1" xmlns="http://www.w3.org/2000/svg" xmlns:xlink="http://www.w3.org/1999/xlink" x="0px" y="0px"
	 viewBox="0 0 500 500" style="enable-background:new 0 0 500 500;" xml:space="preserve">
<style type="text/css">
	.st0{fill:#FFB52A;}
	.st1{fill:#FF6747;}
	.st2{fill:#7D2222;}
	.st3{fill:#FDDEAF;}
	.st4{fill:#F58F29;}
	.st5{fill:#97A09D;}
	.st6{fill:#858C8A;}
	.st7{fill:#FFFFFF;}
	.st8{fill:#FF9BA8;}
	.st9{fill:#15162F;}
	.st10{fill:#B43E18;}
	.st11{fill:none;stroke:#7D2222;stroke-width:1.1767;stroke-linecap:round;stroke-linejoin:round;stroke-miterlimit:10;}
	.st12{fill:#7D9F09;}
	.st13{fill:#FAEDCF;}
	.st14{fill:#75290B;}
	.st15{fill:#FF6B4D;}
	.st16{fill:#F6AB0E;}
	.st17{fill:#8C310D;}
	.st18{fill:#F55D01;}
	.st19{fill:#E03901;}
	.st20{fill:#FFFFFD;}
	.st21{fill:#732A12;}
	.st22{fill:#F05E00;}
	.st23{fill:none;stroke:#732A12;stroke-width:1.0798;stroke-linecap:round;stroke-linejoin:round;stroke-miterlimit:10;}
	.st24{fill:#FF7878;}
	.st25{fill:#FFC19E;}
	.st26{fill:none;}
	.st27{fill:none;stroke:#732A12;stroke-width:2.6732;stroke-linecap:round;stroke-linejoin:round;stroke-miterlimit:10;}
	.st28{fill:#CF4E01;}
	.st29{fill:#B7C2BE;}
	.st30{fill:#00123B;}
	.st31{fill:#FEA01C;}
	.st32{fill:#F55D3D;}
	.st33{fill:#FEDB9C;}
	.st34{fill:#D17317;}
	.st35{fill:#FEDB9C;stroke:#7D2222;stroke-width:0.7404;stroke-linecap:round;stroke-linejoin:round;stroke-miterlimit:10;}
	.st36{fill:#FEDB9C;stroke:#7D2222;stroke-width:0.7729;stroke-linecap:round;stroke-linejoin:round;stroke-miterlimit:10;}
	.st37{fill:none;stroke:#7D2222;stroke-width:0.7729;stroke-linecap:round;stroke-linejoin:round;stroke-miterlimit:10;}
	.st38{fill:#F9FBFC;}
	.st39{fill:#F6C8CC;}
	.st40{fill:#DB7B8E;}
	.st41{fill:#243350;}
	.st42{fill:#767778;}
	.st43{fill:#F9AC02;}
	.st44{fill:#F05174;}
	.st45{fill:#2C1A1B;}
	.st46{fill:#D06402;}
	.st47{fill:#B3B3B3;}
	.st48{fill:#FBA5AE;}
	.st49{fill:#363636;}
	.st50{fill:#A3A3A3;}
	.st51{fill:#F9DFC6;}
	.st52{fill:#CA7A43;}
	.st53{fill:#5F3423;}
	.st54{fill:#DE3757;}
	.st55{fill:#E2A364;}
	.st56{fill:#FFE3C9;}
	.st57{fill:#281A1A;}
	.st58{fill:#EC7F7F;}
	.st59{fill:#CF8248;}
	.st60{fill:#F6E7D3;}
	.st61{fill:#573640;}
	.st62{fill:#AF2B4C;}
	.st63{fill:#9D532F;}
	.st64{fill:#571016;}
	.st65{fill:#FDFDF9;}
	.st66{fill:#942B1D;}
	.st67{fill:#C2552A;}
	.st68{fill:#EF772E;}
	.st69{fill:#E4E6E7;}
	.st70{fill:none;stroke:#243350;stroke-width:0.4733;stroke-miterlimit:10;}
	.st71{fill:none;stroke:#7D2222;stroke-width:2.5806;stroke-linecap:round;stroke-linejoin:round;stroke-miterlimit:10;}
	.st72{fill:none;stroke:#243350;stroke-width:1.0322;stroke-miterlimit:10;}
	.st73{fill:none;stroke:#2C1A1B;stroke-width:0.4342;stroke-linecap:round;stroke-linejoin:round;stroke-miterlimit:10;}
	.st74{fill:none;stroke:#2C1A1B;stroke-width:0.8683;stroke-linecap:round;stroke-linejoin:round;stroke-miterlimit:10;}
	.st75{fill:#3B3B3D;stroke:#3B3B3D;stroke-width:0.3117;stroke-miterlimit:10;}
	.st76{fill:#F9A4A5;}
	.st77{fill:#FFCC6E;}
	.st78{fill:#A9444B;}
	.st79{fill:none;stroke:#3B3B3D;stroke-width:0.935;stroke-linecap:round;stroke-linejoin:round;stroke-miterlimit:10;}
	.st80{fill:#3B3B3D;}
	.st81{fill:#FB8A00;}
	.st82{fill:#F6EADE;}
	.st83{fill:#BDBAB2;}
	.st84{fill:#947861;}
	.st85{fill:#2E1F1D;}
	.st86{fill:#86827C;}
	.st87{fill:none;stroke:#7D2222;stroke-width:1.0198;stroke-linecap:round;stroke-linejoin:round;stroke-miterlimit:10;}
	.st88{fill:#FEDB9C;stroke:#7D2222;stroke-width:1.4293;stroke-linecap:round;stroke-linejoin:round;stroke-miterlimit:10;}
	.st89{fill:#FEDB9C;stroke:#7D2222;stroke-width:1.4921;stroke-linecap:round;stroke-linejoin:round;stroke-miterlimit:10;}
	.st90{fill:none;stroke:#7D2222;stroke-width:1.4921;stroke-linecap:round;stroke-linejoin:round;stroke-miterlimit:10;}
	.st91{fill:#3B3B3D;stroke:#3B3B3D;stroke-width:0.7305;stroke-miterlimit:10;}
	.st92{fill:none;stroke:#3B3B3D;stroke-width:2.1916;stroke-linecap:round;stroke-linejoin:round;stroke-miterlimit:10;}
	.st93{fill:none;stroke:#7D2222;stroke-width:3.0894;stroke-linecap:round;stroke-linejoin:round;stroke-miterlimit:10;}
	.st94{fill:none;stroke:#2E1F1D;stroke-width:0.6143;stroke-linecap:round;stroke-linejoin:round;stroke-miterlimit:10;}
	.st95{fill:none;stroke:#00FF00;stroke-width:0.2326;stroke-miterlimit:10;}
	.st96{fill:none;stroke:#2C1A1B;stroke-width:1.0325;stroke-linecap:round;stroke-linejoin:round;stroke-miterlimit:10;}
	.st97{fill:none;stroke:#2C1A1B;stroke-width:2.0651;stroke-linecap:round;stroke-linejoin:round;stroke-miterlimit:10;}
	.st98{fill:none;stroke:#2E1F1D;stroke-width:1.3604;stroke-linecap:round;stroke-linejoin:round;stroke-miterlimit:10;}
	.st99{fill:none;stroke:#00FF00;stroke-width:0.3936;stroke-miterlimit:10;}
	.st100{fill:#B2B2B2;}
	.st101{fill:#858585;}
	.st102{fill:#573126;}
	.st103{fill:#E9CFB8;}
</style>
<g>
	<path class="st43" d="M369.06,342.28c-6.15,11.01-15.7,22.06-29.94,30.59c-31.83,19.1-71.76,26.15-119.6,19.78
		c-47.84-6.36-94.48-24.09-111.85-61.44c-17.39-37.34-5.85-73.13-5.85-73.13s17.33-3.28,37.2-6.67c26.55-4.52,57.65-9.23,58.13-6.58
		c0.58,3.07,5.57,10.19,16.78,13.68c5.2,1.62,11.74,2.46,19.8,1.73c0.87-0.07,1.74-0.17,2.65-0.28c7.11-0.9,13.82-2.49,20.5-4.23
		c4.37-1.14,8.72-2.34,13.19-3.46c7.6-1.9,15.49-3.54,24.22-4.16c7.41-0.54,15.44-0.34,24.4,1.07c1.23,0.18,2.48,0.39,3.75,0.63
		c37.51,7.05,55.58,40.96,56.27,56.61C379.09,315.1,376.67,328.66,369.06,342.28z"/>
	<path class="st46" d="M221.76,385.95c-3.79-6.71-1.38-30.98,5.85-41.13c7.23-10.15,2.75,33.73,11.01,41.47
		C246.89,394.04,221.76,385.95,221.76,385.95z"/>
	<path class="st46" d="M273.73,387.15c0.34-3.27-1.2-29.77,1.03-31.49s9.81,26.5,9.46,27.02
		C283.89,383.19,273.73,387.15,273.73,387.15z"/>
	<path class="st46" d="M171.86,421.19c-1.4,7.18-2.71,12.79-3.32,14.57c-1.85,5.3-6.92,14.03-20.95,16.05
		c-14.02,2.02-18.41-1.93-18.41-1.93c-10.33-0.86-7.92-12.13-7.92-12.13c-0.17-1.98,0.43-5.8,3.15-8.71
		c2.71-2.9,12.86-5.48,12.86-5.48s2.36-4.78,2.12-22.58c-0.27-17.82-10.38-49.78-10.38-49.78s46.82,13.94,48.01,27.01
		C177.82,386.88,174.64,407.06,171.86,421.19z"/>
	<path class="st46" d="M345.29,416.09c-0.06,0.45-0.12,0.86-0.19,1.2c-1.41,8.26-6.32,25.74-22.41,30.18
		c-16.1,4.43-22.63-0.52-22.63-0.52c-9.85-0.99-7.96-10.42-7.96-10.42c-0.82-1.67-0.47-5.38,3.75-8.86
		c4.21-3.49,11.24-5.42,11.24-5.42c3.69-12.59,2.78-13.3-2.78-21.56c-5.54-8.26-18.83-15.74-19.35-16.64l61.68-22.32
		C348.14,369.16,346.66,405.78,345.29,416.09z"/>
	<path class="st38" d="M369.07,342.28c-6.15,11.01-15.7,22.05-29.94,30.59c-31.83,19.1-71.76,26.15-119.6,19.78
		c-47.84-6.36-94.48-24.09-111.85-61.44c-17.39-37.34-5.85-73.13-5.85-73.13s17.33-3.28,37.2-6.67l0.14,15.45
		c-0.18,0.69-8.44,48.53,9.12,78.3c17.55,29.78,77.26,40.44,115.47,37.35c38.2-3.1,84.5-22.72,105.15-40.09
		C368.95,342.36,369.02,342.32,369.07,342.28z"/>
	<g>
		<path class="st43" d="M469,171c-2.69,4.54-5.67,9.04-8.9,13.53c-2.37,3.31-4.89,6.61-7.56,9.88
			c-9.41,11.58-20.08,21.19-30.8,29.74c-3.68,2.94-7.35,5.75-10.98,8.48c-6.57,4.94-12.99,9.6-18.98,14.21
			c-4,3.09-7.79,6.14-11.3,9.24c-8.71,7.7-15.66,15.66-19.5,24.9l-20.48-15.49c0,0,4.06-8.97,13.64-21.86
			c2.75-3.7,5.96-7.7,9.64-11.93c6.42-7.32,14.31-15.26,23.86-23.18c5.76-4.77,11.11-9.51,16.03-14.24
			c4.11-3.95,7.91-7.92,11.39-11.91c12.33-14.14,20.63-28.64,24.17-44.77c0.89-4.02,1.48-8.12,1.76-12.35
			c0.16-2.37,0.22-4.8,0.19-7.26c-0.52-35.27-31.49-51.97-18.42-78.3c12.69-25.54,48.87-16.26,61.38,25.02
			c0.38,1.27,0.74,2.56,1.08,3.89c1.76,6.89,2.95,13.7,3.6,20.45c0,0.01,0,0.01,0,0.01C491.57,117.5,484.64,144.78,469,171z"/>
		<path class="st46" d="M488.83,89.07c0,0.01,0,0.01,0,0.01c-5.07,7.27-18.89,9.63-22.53,8.57c-4.01-1.16-7.74-2.06,5.04-11.22
			c8.71-6.25,11.72-15.98,12.8-21.7c0.38,1.27,0.74,2.56,1.08,3.89C486.98,75.5,488.18,82.32,488.83,89.07z"/>
		<path class="st46" d="M458.43,132.37c-0.38,3.53-13.3,6.2-19.19,5.23c0.89-4.02,1.48-8.12,1.76-12.35
			C445.87,126.47,458.77,129.16,458.43,132.37z"/>
		<path class="st46" d="M469,171c-2.69,4.54-5.67,9.04-8.9,13.53c-19.64,1.33-27.61-18.03-21.28-16.66
			C444.94,169.19,452.64,175.1,469,171z"/>
		<path class="st46" d="M403.68,194.29c4.11-3.95,7.91-7.92,11.39-11.91c4.78,2.01,11.81,5.68,13.03,9.62
			C429.47,196.45,411.46,196.38,403.68,194.29z"/>
		<path class="st46" d="M421.74,224.15c-3.68,2.94-7.35,5.75-10.98,8.48c-6.51-6.49-19.59-23.5-14.41-22.94
			C401.01,210.2,415.02,219.32,421.74,224.15z"/>
		<path class="st46" d="M391.78,246.83c-4,3.09-7.79,6.14-11.3,9.24c0.21-9.08,0.72-25.17,3.6-24.19
			C386.53,232.73,389.74,240.87,391.78,246.83z"/>
		<path class="st46" d="M368.85,246.99c0.11,3.89-10.35,1.46-14.7-3.36c2.75-3.7,5.96-7.7,9.64-11.93
			C366.09,237.06,368.78,244.25,368.85,246.99z"/>
	</g>
	<path class="st38" d="M171.86,421.19c-1.4,7.18-2.71,12.79-3.32,14.57c-1.85,5.3-6.92,14.03-20.95,16.05
		c-14.02,2.02-18.41-1.93-18.41-1.93c-10.33-0.86-7.92-12.13-7.92-12.13c-0.17-1.98,0.43-5.8,3.15-8.71
		c2.71-2.9,12.86-5.48,12.86-5.48s4.5-0.58,11.34,3.68c6.85,4.26,12.13-0.38,15.62-3.74C166.74,421.05,169.37,419.77,171.86,421.19z
		"/>
	<path class="st38" d="M345.29,416.09c-0.06,0.45-0.12,0.86-0.19,1.2c-1.41,8.26-6.32,25.74-22.41,30.18
		c-16.1,4.43-22.63-0.52-22.63-0.52c-9.85-0.99-7.96-10.42-7.96-10.42c-0.82-1.67-0.47-5.38,3.75-8.86
		c4.21-3.49,11.24-5.42,11.24-5.42c5.02-0.18,10.26,4.47,17.41,2.92C331.29,423.7,337.45,412.68,345.29,416.09z"/>
	<path class="st46" d="M233.73,260.25c-0.67,15.42-12.42,32.5-19.54,37.24c-7.74,5.16-9.98,2.58-4.65-8.44
		c4.43-9.17,5.3-23.21,4.38-30.54C219.13,260.14,225.67,260.98,233.73,260.25z"/>
	<path class="st46" d="M270.07,252.28c-0.65,9-10.06,33.82-12.86,30.24c-2.45-3.13-1.03-19.88-0.33-26.78
		C261.25,254.61,265.6,253.4,270.07,252.28z"/>
	<path class="st46" d="M318.69,249.2c-2.69,10.78-11.49,37.3-18.97,32.12c-6.41-4.44-6.11-23.02-5.43-33.2
		C301.7,247.59,309.73,247.78,318.69,249.2z"/>
	<g>
		<path class="st43" d="M127.37,124.55L97.9,134.78l-30.51,10.59l-6.18,2.15c0.68-32.7,15.75-59.55,21.63-66.3
			c5.9-6.75,8.16-9.82,20.78,3.36C117.6,99.16,127.37,124.55,127.37,124.55z"/>
		<path class="st44" d="M97.9,134.78l-30.51,10.59c1.29-29.9,19.1-61.65,22.16-60.43c3.1,1.23,6.67,10.86,8.31,22.65
			C99.13,116.74,98.33,129.51,97.9,134.78z"/>
		<path class="st43" d="M201.11,248.62c-14.05,17.99-44.55,24.46-75.68,20.7c-19.21-2.3-38.64-8.51-54.59-18.29
			c-4.77-2.92-8.96-5.93-12.63-8.98c-28.49-23.74-25.3-50.6-15.08-68.29c10.2-17.68,26.36-52.77,74.45-51.6h0.01
			c4.06,0.09,8.35,0.45,12.89,1.1c1.02,0.14,2.04,0.31,3.1,0.49c1.4,0.24,2.84,0.51,4.3,0.79c0,0,1.61,0.33,4.39,1.16
			c2.29,0.67,5.36,1.68,8.97,3.1c4.36,1.71,9.5,4.04,14.99,7.12c9.84,5.52,20.77,13.49,30.24,24.76
			C220.9,189.76,223.83,219.54,201.11,248.62z"/>
		<path class="st43" d="M168.29,139.99c0,0,17.42-11.83,39.28-13.55c21.86-1.72,29.26,0,31.41,3.79
			c2.15,3.79-4.13,43.02-31.15,74.34L168.29,139.99z"/>
		<path class="st44" d="M183.39,156.38c0,0,8-10.58,24.52-16.65c16.52-6.07,22.39-5.29,22.97-4.84c0.58,0.45-3.79,31.13-25.3,56.42
			C205.59,191.32,202.32,164.64,183.39,156.38z"/>
		<path class="st38" d="M140.19,268.16c-4.99,1.04-9.86,1.49-14.59,1.51c-19.21-2.3-38.64-8.51-54.59-18.29
			c-4.77-2.92-8.96-5.93-12.63-8.98c-6.68-9.42-11.29-20.68-10.6-29.14c1.29-16.09,13.1-17.49,27.82-16.72
			c14.71,0.77,20.71-24.84,29.49-37.23c4.75-6.7,10.07-7.98,14.02-6.85c8.09,2.32,9.64,12.01,5.08,26.9
			c-4.56,14.88-7.05,24.69,2.32,32.61c9.38,7.92,32.09,8.95,37.77,22.97C169.96,248.96,164.54,263.08,140.19,268.16z"/>
		<path class="st44" d="M99.58,195.62c7.75,2.05,10.82,5.87,10.05,8.65c-0.77,2.77-9.74,5.87-14.65,5.94
			c-4.9,0.06-8.13-13.58-5.87-14.81C91.36,194.17,94.7,194.33,99.58,195.62z"/>
		<g>
			
				<ellipse transform="matrix(0.5 -0.866 0.866 0.5 -101.3993 221.5678)" class="st45" cx="141.18" cy="198.6" rx="18.4" ry="15.41"/>
			<path class="st38" d="M155.7,193.65c0,3.19-2.17,5.78-4.84,5.78c-2.67,0-4.84-2.59-4.84-5.78c0-3.19,2.17-5.78,4.84-5.78
				C153.53,187.87,155.7,190.46,155.7,193.65z"/>
		</g>
		<g>
			<path class="st45" d="M85.48,185.77c-3.94,8.28-11.76,11.75-17.47,7.75c-5.71-4.01-7.15-13.97-3.21-22.25
				c3.94-8.28,11.76-11.75,17.47-7.75C87.98,167.53,89.42,177.49,85.48,185.77z"/>
			<path class="st38" d="M86.39,173.86c0,3-1.68,5.44-3.75,5.44c-2.07,0-3.75-2.43-3.75-5.44c0-3,1.68-5.44,3.75-5.44
				C84.71,168.42,86.39,170.86,86.39,173.86z"/>
		</g>
		<path class="st45" d="M152.15,170.3c-0.8-0.1-4.45,1.97-4.13,3.78c0.32,1.81,5.39,1.29,8.97,2.97c3.58,1.68,5.58,5.16,6.26,7.78
			C163.25,184.82,165.05,171.92,152.15,170.3z"/>
		<path class="st45" d="M89.34,149.43c0.73,0.35,2.69,4.06,1.45,5.4c-1.24,1.35-5.24-1.81-9.16-2.32c-3.92-0.51-7.48,1.35-9.46,3.19
			C72.17,155.69,77.6,143.85,89.34,149.43z"/>
		<path class="st45" d="M117.05,230.6c-0.34,0.87-3.66,5.49-8.08,9.46c-4.11,3.69-9.19,6.79-13.73,5.76
			c-3.42-0.77-5.93-4.16-7.73-8.17c-3.18-7.03-4.2-15.96-4.2-15.96c5.65-0.13,10.66-3.39,10.66-3.39
			c1.48,3.74,5.03,9.29,10.48,11.19C109.88,231.4,117.05,230.6,117.05,230.6z"/>
		<path class="st44" d="M108.96,240.06c-4.11,3.69-9.19,6.79-13.73,5.76c-3.42-0.77-5.93-4.16-7.73-8.17
			C92.59,234.63,102.58,230.57,108.96,240.06z"/>
		<path class="st96" d="M181.84,222.64c0,0,25.73-3.44,40.79,9.9"/>
		<path class="st96" d="M181.23,228.92c0.26,0,28.83,4.47,39.06,21.68"/>
		<path class="st96" d="M178.14,237.87c0,0,16.78,6.02,20.31,10.76"/>
		<path class="st96" d="M48.32,194.13c0,0-14.46-13.62-34.33-13.55"/>
		<path class="st96" d="M44.12,202.72c0,0-19.49-6.71-35.43,5.03"/>
		<path class="st96" d="M45.16,212.07c0,0-15.94,1.74-26.72,13.81"/>
		<path class="st46" d="M142.26,125.71c-1.89,3.84-5.91,11.75-8.26,14.59c-3.16,3.8-9.59,10.97-10.76,9.03
			c-1.16-1.94-1.16-6.76,1.17-12.31c1.77-4.21,6.71-10.27,9.17-13.27c1.4,0.24,2.84,0.51,4.3,0.79
			C137.87,124.55,139.48,124.88,142.26,125.71z"/>
		<path class="st46" d="M166.22,135.93c-7.75,5.05-25.69,11.88-24.92,8.38c0.66-2.96,6.7-11.24,9.92-15.51
			C155.59,130.52,160.73,132.84,166.22,135.93z"/>
		<path class="st46" d="M130.48,123.27c-1.94,2-6.01,4.86-9.62,9.82c-5.04,6.9-6.18,9.14-8.32,8.58c-1.49-0.39-2.4-4.01-0.59-9.55
			c1.48-4.51,3.8-7.84,5.64-9.95h0.01C121.65,122.26,125.94,122.62,130.48,123.27z"/>
		<path class="st96" d="M87.62,247.95c0.32,0.26,4.19,5.42,13.68,4.13"/>
		<path class="st97" d="M71.79,211.11c0,0,1.2,7.49,8.43,9.81c7.23,2.32,13.68-2.93,13.68-2.93s2.75,10.15,13.51,12.3
			c10.76,2.15,18.41-3.27,18.41-3.27"/>
	</g>
	<path class="st43" d="M174.73,341.33c-10.38,17.27-35.01,32.15-52.07,40.97c-3.53,1.82-6.74,3.39-9.43,4.65
		c-3.54,1.68-6.18,2.85-7.49,3.43c-2.28,1.03-8.63,3.23-16.73,5.53c-16.84,4.8-41.23,10.09-52.26,6.34
		c-16.32-5.54-17.81-27.29-9.03-33.8c8.78-6.53,22.85,3.35,25.04,4.77c0.13,0.08,0.35,0.14,0.66,0.17
		c2.52,0.18,10.66-1.84,20.83-7.07c2.68-1.37,5.51-2.97,8.42-4.83c6.94-4.42,14.32-10.23,21.21-17.69
		c3.75-4.06,7.24-8.43,10.44-12.93c3.81-5.31,7.23-10.79,10.24-16.12c10.89-19.18,16.67-36.35,16.67-36.35
		S190.1,315.78,174.73,341.33z"/>
	<path class="st38" d="M89.02,395.91c-16.84,4.8-41.23,10.09-52.26,6.34c-16.32-5.54-17.81-27.29-9.03-33.81
		c8.78-6.53,22.85,3.35,25.04,4.77c0.13,0.08,0.35,0.14,0.66,0.17c1.94,2.44,2.95,7.36,2.87,10.76c-0.09,3.45,8.52,8.18,17.98,8.95
		C82.21,393.74,86.94,393.78,89.02,395.91z"/>
	<path class="st46" d="M122.66,382.3c-3.53,1.82-6.74,3.39-9.43,4.65c-5.45-7.54-12.82-24.72-7.93-23.42
		C110.59,364.94,117.4,375.8,122.66,382.3z"/>
	<path class="st46" d="M88.65,373.21c-0.29,2.74-9.84-3.05-14.39-6.91c2.68-1.37,5.51-2.97,8.42-4.83
		C85.5,365.34,88.91,370.83,88.65,373.21z"/>
	<path class="st46" d="M142.99,343.91c-3.61,6.45-6.97-13.29-27.36-13.03c-0.45,0.01-0.9,0-1.31-0.02
		c3.81-5.31,7.23-10.79,10.24-16.12C138.94,322.6,146.22,338.15,142.99,343.91z"/>
	<g>
		<path class="st43" d="M424.74,423.93c-0.71,10.78-7.88,14.85-7.88,14.85c-4.32,5.68-12.71,5.56-12.71,5.56
			c-4.71,2.25-13.29-1.1-14.84-6.53c-1.55-5.42,1.61-12.26,0.9-17.29c-0.25-1.68-1.18-4.2-2.49-6.85c-2.16-4.37-5.32-9.11-8-11.12
			c-0.53-0.4-1.04-0.69-1.53-0.86c-1.58-0.53-5.75-0.23-11.33-0.22c-8.23,0-19.54-0.62-30.18-5.46c-2.13-0.96-4.23-2.11-6.29-3.44
			c-3.62-2.35-6.94-5.26-9.94-8.42c-12.99-13.65-20.13-32.11-20.13-32.11s68.8-67.11,77.18-51.37c5.86,11.02,4.41,31.3,4.12,44.78
			v0.01c-0.13,5.68-0.05,10.16,0.88,12.21c0.01,0.04,0.02,0.07,0.04,0.1c3.22,6.71,6.84,3.36,12,4.65
			c5.16,1.29,7.66,5.88,11.02,12.15c1.31,2.46,4.64,8.88,8.16,16.45C419.2,402.83,425.17,417.38,424.74,423.93z"/>
		<path class="st38" d="M424.74,423.93c-0.71,10.78-7.88,14.85-7.88,14.85c-4.32,5.68-12.71,5.55-12.71,5.55
			c-4.71,2.25-13.29-1.1-14.84-6.53c-1.55-5.42,1.61-12.26,0.9-17.29c-0.25-1.68-1.18-4.2-2.49-6.85c3.95,3.52,9.65,5.58,14.82,2.52
			c6.77-4,6.97-12.83,6.85-19.55c-0.08-4.19,2.35-5.34,4.33-5.61C419.21,402.83,425.17,417.37,424.74,423.93z"/>
		<path class="st46" d="M382.5,357.68c-0.14,0.25-0.3,0.47-0.47,0.68c-2.97,3.49-21.43,9.55-20.91,5.42
			c0.49-3.86,10.46-13.03,20.51-18.32C381.49,351.15,381.57,355.63,382.5,357.68z"/>
		<path class="st46" d="M379.72,402.55c-0.53-0.4-1.04-0.69-1.53-0.86c-1.58-0.53-5.75-0.23-11.33-0.22
			c4.09-8.29,14.25-21.84,19.93-20.39C392.8,382.61,383.39,393.29,379.72,402.55z"/>
	</g>
</g>
</svg>
