<?xml version="1.0" encoding="UTF-8" standalone="no"?>
<!-- Created with Inkscape (http://www.inkscape.org/) -->

<svg
   version="1.1"
   id="svg1"
   width="880"
   height="880"
   viewBox="0 0 880 880"
   sodipodi:docname="mountains-and-river-publicdomainvectors.org.svg"
   inkscape:version="1.3.2 (091e20e, 2023-11-25, custom)"
   xmlns:inkscape="http://www.inkscape.org/namespaces/inkscape"
   xmlns:sodipodi="http://sodipodi.sourceforge.net/DTD/sodipodi-0.dtd"
   xmlns="http://www.w3.org/2000/svg"
   xmlns:svg="http://www.w3.org/2000/svg">
  <defs
     id="defs1">
    <clipPath
       clipPathUnits="userSpaceOnUse"
       id="clipPath8">
      <path
         d="M 0,660 H 660 V 0 H 0 Z"
         transform="translate(-478.01761,-325.52441)"
         id="path8" />
    </clipPath>
    <clipPath
       clipPathUnits="userSpaceOnUse"
       id="clipPath10">
      <path
         d="M 0,660 H 660 V 0 H 0 Z"
         transform="translate(-1.0010001,-236.16111)"
         id="path10" />
    </clipPath>
    <clipPath
       clipPathUnits="userSpaceOnUse"
       id="clipPath12">
      <path
         d="M 0,660 H 660 V 0 H 0 Z"
         id="path12" />
    </clipPath>
    <clipPath
       clipPathUnits="userSpaceOnUse"
       id="clipPath14">
      <path
         d="M 0,660 H 660 V 0 H 0 Z"
         transform="translate(-1.0010001,-235.5781)"
         id="path14" />
    </clipPath>
    <clipPath
       clipPathUnits="userSpaceOnUse"
       id="clipPath16">
      <path
         d="M 0,660 H 660 V 0 H 0 Z"
         id="path16" />
    </clipPath>
    <clipPath
       clipPathUnits="userSpaceOnUse"
       id="clipPath18">
      <path
         d="M 0,660 H 660 V 0 H 0 Z"
         id="path18" />
    </clipPath>
    <clipPath
       clipPathUnits="userSpaceOnUse"
       id="clipPath20">
      <path
         d="M 0,660 H 660 V 0 H 0 Z"
         transform="translate(-658.43362,-128.16891)"
         id="path20" />
    </clipPath>
    <clipPath
       clipPathUnits="userSpaceOnUse"
       id="clipPath21">
      <path
         d="M 41.8569,164.259 H 612.884 V 38.9414 H 41.8569 Z"
         id="path21" />
    </clipPath>
    <clipPath
       clipPathUnits="userSpaceOnUse"
       id="clipPath23">
      <path
         d="M 0,660 H 660 V 0 H 0 Z"
         transform="matrix(1.3333333,0,0,-1.3333333,0,880)"
         id="path23" />
    </clipPath>
    <clipPath
       clipPathUnits="userSpaceOnUse"
       id="clipPath25">
      <path
         d="M 0,660 H 660 V 0 H 0 Z"
         transform="translate(-658.43362,-77.720702)"
         id="path25" />
    </clipPath>
  </defs>
  <sodipodi:namedview
     id="namedview1"
     pagecolor="#ffffff"
     bordercolor="#000000"
     borderopacity="0.25"
     inkscape:showpageshadow="2"
     inkscape:pageopacity="0.0"
     inkscape:pagecheckerboard="0"
     inkscape:deskcolor="#d1d1d1"
     inkscape:zoom="0.67272727"
     inkscape:cx="439.25676"
     inkscape:cy="440"
     inkscape:window-width="1440"
     inkscape:window-height="830"
     inkscape:window-x="-6"
     inkscape:window-y="-6"
     inkscape:window-maximized="1"
     inkscape:current-layer="g1">
    <inkscape:page
       x="0"
       y="0"
       inkscape:label="1"
       id="page1"
       width="880"
       height="880"
       margin="0 2.0880001 3.4213333 1.3333334"
       bleed="0" />
  </sodipodi:namedview>
  <g
     id="g1"
     inkscape:groupmode="layer"
     inkscape:label="1">
    <g
       id="group-MC0">
      <path
         id="path2"
         d="M 1,0 H 658.434 V 657.434 H 1 Z"
         style="fill:#bde9ec;fill-opacity:1;fill-rule:nonzero;stroke:none"
         transform="matrix(1.3333333,0,0,-1.3333333,0,880)" />
      <path
         id="path3"
         d="M 0,0 -563.471,-8.414 0,-11.569 Z m -657.433,-74.665 629.236,-8.413 -629.236,-17.878 z M 0,-121.988 -305.826,-129.35 0,-137.763 Z M -657.433,59.415 0,54.157 V 38.383 l -657.433,-7.361 z"
         style="fill:#d5f1f4;fill-opacity:1;fill-rule:evenodd;stroke:none"
         transform="matrix(1.3333333,0,0,-1.3333333,877.91147,127.33333)" />
      <path
         id="path4"
         d="m 0,0 113.259,-65.391 61.212,35.342 114.769,-66.261 161.465,93.221 58.606,-33.836 v -147.902 h -657.433 v 102.802 z"
         style="fill:#9dcdca;fill-opacity:1;fill-rule:evenodd;stroke:none"
         transform="matrix(1.3333333,0,0,-1.3333333,198.83067,284.01893)" />
      <path
         id="path5"
         d="m 0,0 39.749,-22.949 -4.204,20.51 23.662,12.094 2.005,25.686 z m 175.982,-30.92 71.501,-41.281 70.948,75.546 0.525,30.497 18.49,28.459 z m -289.241,96.311 -43.641,-54.159 4.207,-19.98 -65.726,-75.716 -42.962,5.258 v 62.571 z"
         style="fill:#b5e3e0;fill-opacity:1;fill-rule:evenodd;stroke:none"
         transform="matrix(1.3333333,0,0,-1.3333333,349.8424,371.2064)" />
      <path
         id="path6"
         d="M 0,0 4.78,-29.576 9.563,-59.153 H 0 -9.563 l 4.781,29.577 z m 63.794,5.258 5.537,-36.105 5.538,-36.104 H 63.794 52.716 l 5.538,36.104 z m 28.587,-24.187 7.897,-36.047 7.901,-36.046 H 92.381 76.583 l 7.899,36.046 z m 68.512,-12.62 7.055,-33.462 7.057,-33.463 h -14.112 -14.114 l 7.057,33.463 z m 68.717,6.31 4.484,-29.155 4.48,-29.153 h -8.964 -8.962 l 4.482,29.153 z m 50.12,7.887 3.415,-28.296 3.415,-28.297 h -6.83 -6.831 l 3.414,28.297 z m 70.404,32.4 6.398,-34.037 6.398,-34.036 h -12.796 -2.196 l 0.947,-7.836 h -8.425 -2.551 l 0.941,-5.286 h -12.112 -12.111 l 6.056,34.072 6.055,34.072 6.056,-34.072 1.617,-9.103 1.837,15.216 4.212,34.9 3.332,-27.619 z m 41.759,14.922 5.762,-25.58 5.763,-25.58 h -11.525 -11.529 l 5.764,25.58 z m 61.255,7.887 5.877,-23.652 5.877,-23.653 h -11.754 -11.754 l 5.876,23.653 z m 27.176,-4.731 3.759,-22.281 3.755,-22.282 h -7.514 -7.511 l 3.756,22.282 z M -55.59,13.671 l 3.935,-35.451 3.933,-35.452 h -7.868 -7.868 l 3.934,35.452 z"
         style="fill:#455621;fill-opacity:1;fill-rule:evenodd;stroke:none"
         transform="matrix(1.3333333,0,0,-1.3333333,182.00907,406.7096)" />
      <path
         id="path7"
         d="m 0,0 c 9.728,0 17.614,-7.887 17.614,-17.614 0,-9.729 -7.886,-17.614 -17.614,-17.614 -4.07,0 -7.816,1.379 -10.799,3.697 -2.131,-9.051 -10.257,-15.791 -19.96,-15.791 -4.618,0 -8.88,1.526 -12.306,4.1 -1.242,-7.548 -7.795,-13.305 -15.697,-13.305 -8.783,0 -15.905,7.12 -15.905,15.907 0,8.784 7.122,15.906 15.905,15.906 2.712,0 5.266,-0.679 7.497,-1.874 0.124,11.222 9.255,20.279 20.506,20.279 5.454,0 10.413,-2.132 14.086,-5.607 C -14.304,-4.984 -7.734,0 0,0 m 81.596,60.994 c 10.364,0 18.764,-8.399 18.764,-18.763 0,-0.753 -0.046,-1.496 -0.131,-2.227 3.599,2.619 8.029,4.163 12.822,4.163 12.05,0 21.819,-9.769 21.819,-21.82 0,-12.052 -9.769,-21.822 -21.819,-21.822 -1.35,0 -2.667,0.124 -3.951,0.359 0.002,-0.12 0.005,-0.24 0.005,-0.359 0,-13.067 -10.593,-23.661 -23.662,-23.661 -13.053,0 -23.638,10.573 -23.661,23.622 -11.036,0.011 -19.981,8.962 -19.981,20 0,11.046 8.955,20.001 20.002,20.001 0.373,0 0.745,-0.01 1.114,-0.031 -0.055,0.586 -0.084,1.176 -0.084,1.775 0,10.364 8.401,18.763 18.763,18.763 M -439.05,24.712 c 11.47,0 20.77,-9.297 20.77,-20.768 0,-0.545 -0.022,-1.086 -0.063,-1.621 1.677,0.539 3.465,0.832 5.321,0.832 3.514,0 6.782,-1.046 9.515,-2.84 2.469,6.573 8.812,11.252 16.25,11.252 9.582,0 17.351,-7.767 17.351,-17.35 0,-0.228 -0.006,-0.452 -0.014,-0.676 1.772,0.441 3.626,0.676 5.535,0.676 5.584,0 10.699,-2.003 14.671,-5.326 2.363,1.966 5.401,3.149 8.715,3.149 2.358,0 4.577,-0.6 6.513,-1.654 3.668,6.374 10.547,10.665 18.428,10.665 6.123,0 11.64,-2.588 15.516,-6.732 3.565,5.626 9.847,9.361 17,9.361 9.099,0 16.786,-6.041 19.268,-14.332 0.707,0.089 1.427,0.136 2.158,0.136 9.292,0 16.827,-7.533 16.827,-16.825 0,-9.294 -7.535,-16.825 -16.827,-16.825 -4.599,0 -8.765,1.845 -11.801,4.835 -1.151,-6.776 -6.416,-12.152 -13.136,-13.465 -3.356,-4.647 -8.818,-7.672 -14.99,-7.672 -10.208,0 -18.485,8.277 -18.485,18.486 0,0.336 0.01,0.671 0.027,1.003 -5.176,1.1 -9.657,4.089 -12.686,8.209 -2.213,-1.547 -4.906,-2.458 -7.812,-2.458 -0.49,0 -0.974,0.026 -1.452,0.077 -2.799,-9.467 -11.559,-16.376 -21.934,-16.376 -6.121,0 -11.68,2.404 -15.785,6.318 -4.145,-5.136 -10.49,-8.423 -17.604,-8.423 -12.486,0 -22.61,10.123 -22.61,22.61 0,0.368 0.01,0.734 0.028,1.096 -5.711,2.667 -9.727,8.352 -10.002,15.003 -2.645,-1.22 -5.588,-1.902 -8.692,-1.902 -11.47,0 -20.769,9.298 -20.769,20.769 0,11.471 9.299,20.768 20.769,20.768"
         style="fill:#769a2a;fill-opacity:1;fill-rule:evenodd;stroke:none"
         transform="matrix(1.3333333,0,0,-1.3333333,637.3568,445.96747)"
         clip-path="url(#clipPath8)" />
      <path
         id="path9"
         d="m 0,0 v 106.456 c 3.212,0.852 6.585,1.309 10.067,1.309 15.616,0 29.094,-9.145 35.375,-22.369 2.508,1.356 5.378,2.125 8.429,2.125 9.802,0 17.747,-7.945 17.747,-17.747 0,-0.188 -0.003,-0.375 -0.01,-0.563 4.033,-4.584 6.481,-10.599 6.481,-17.185 0,-0.175 -0.003,-0.352 -0.006,-0.527 4.085,2.331 8.813,3.665 13.854,3.665 4.683,0 9.095,-1.152 12.975,-3.185 5.043,12.22 17.074,20.82 31.116,20.82 15.552,0 28.635,-10.549 32.494,-24.882 3.829,2.438 8.375,3.85 13.25,3.85 2.9,0 5.679,-0.5 8.264,-1.418 4.498,10.13 14.645,17.191 26.441,17.191 14.875,0 27.127,-11.234 28.738,-25.683 2.368,0.964 4.957,1.499 7.673,1.499 11.252,0 20.373,-9.124 20.373,-20.375 0,-11.254 -9.121,-20.375 -20.373,-20.375 -4.829,0 -9.262,1.678 -12.753,4.484 -2.15,-1.021 -4.556,-1.594 -7.096,-1.594 -4.47,0 -8.524,1.772 -11.504,4.648 -1.642,-0.289 -3.333,-0.442 -5.058,-0.442 -5.128,0 -9.943,1.336 -14.119,3.676 C 197.93,6.727 190.365,2.342 181.772,2.342 c -9.462,0 -17.681,5.319 -21.833,13.13 -6.1,-6.16 -14.559,-9.976 -23.911,-9.976 -7.649,0 -14.7,2.552 -20.351,6.852 C 110.73,4.443 101.948,-0.814 91.937,-0.814 80.575,-0.814 70.794,5.957 66.409,15.684 62.456,11.461 56.875,8.784 50.667,8.657 45.582,1.646 37.325,-2.916 28.001,-2.916 20.386,-2.916 13.483,0.127 8.438,5.062 5.963,2.917 3.113,1.193 0,0 M 657.433,106.798 V 6.84 c -0.459,-0.017 -0.917,-0.029 -1.38,-0.029 -8.246,0 -15.819,2.878 -21.775,7.683 -4.666,-4.436 -10.978,-7.158 -17.924,-7.158 -4.16,0 -8.089,0.978 -11.578,2.713 -5.573,-5.267 -13.087,-8.496 -21.359,-8.496 -6.145,0 -11.873,1.782 -16.696,4.859 -5.396,-13.625 -18.69,-23.263 -34.235,-23.263 -14.127,0 -26.394,7.963 -32.564,19.645 -1.774,-0.466 -3.636,-0.716 -5.557,-0.716 -9.74,0 -17.99,6.385 -20.796,15.196 -4.619,-2.961 -10.113,-4.679 -16.01,-4.679 -10.054,0 -18.941,4.996 -24.317,12.637 C 429.833,11.338 417.297,1.027 402.35,1.027 c -11.311,0 -21.242,5.904 -26.883,14.797 -2.117,-1.055 -4.505,-1.651 -7.033,-1.651 -8.71,0 -15.775,7.061 -15.775,15.773 0,8.713 7.065,15.775 15.775,15.775 1.578,0 3.099,-0.233 4.538,-0.664 4.79,11.506 16.138,19.592 29.378,19.592 11.118,0 20.903,-5.706 26.591,-14.348 3.492,12.522 14.982,21.711 28.618,21.711 5.582,0 10.804,-1.543 15.266,-4.222 3.211,13.866 15.639,24.201 30.481,24.201 0.975,0 1.942,-0.047 2.895,-0.135 0.186,9.98 8.329,18.013 18.353,18.013 10.139,0 18.356,-8.22 18.356,-18.357 0,-0.56 -0.025,-1.114 -0.075,-1.662 2.961,1.075 6.155,1.662 9.486,1.662 4.64,0 9.013,-1.139 12.86,-3.152 3.138,10.217 12.403,17.75 23.509,18.318 3.958,11.934 15.206,20.543 28.468,20.543 12.512,0 23.234,-7.666 27.729,-18.557 0.903,0.099 1.821,0.154 2.752,0.154 3.481,0 6.792,-0.722 9.794,-2.02"
         style="fill:#9ac421;fill-opacity:1;fill-rule:evenodd;stroke:none"
         transform="matrix(1.3333333,0,0,-1.3333333,1.3346667,565.11853)"
         clip-path="url(#clipPath10)" />
      <path
         id="path11"
         d="M 1,0 H 658.434 V 262.159 H 1 Z"
         style="fill:#adda1a;fill-opacity:1;fill-rule:evenodd;stroke:none"
         transform="matrix(1.3333333,0,0,-1.3333333,0,880)"
         clip-path="url(#clipPath12)" />
      <path
         id="path13"
         d="M 0,0 563.471,-2.51 0,-3.451 Z M 657.433,-22.271 28.2,-24.779 657.433,-30.112 Z M 0,-36.388 305.827,-38.582 0,-41.091 Z m 657.433,-7.034 -337.938,-3.156 337.938,-4.731 z m 0,61.144 L 0,16.152 V 11.448 L 657.433,9.253 Z"
         style="fill:#9ac421;fill-opacity:1;fill-rule:evenodd;stroke:none"
         transform="matrix(1.3333333,0,0,-1.3333333,1.3346667,565.89587)"
         clip-path="url(#clipPath14)" />
      <path
         id="path15"
         d="M 1,38.941 H 658.434 V 164.259 L 1,164.259 Z"
         style="fill:#54c6c8;fill-opacity:1;fill-rule:evenodd;stroke:none"
         transform="matrix(1.3333333,0,0,-1.3333333,0,880)"
         clip-path="url(#clipPath16)" />
      <path
         id="path17"
         d="M 1.001,164.259 H 658.434 V 178.03 H 1.001 Z"
         style="fill:#87b027;fill-opacity:1;fill-rule:evenodd;stroke:none"
         transform="matrix(1.3333333,0,0,-1.3333333,0,880)"
         clip-path="url(#clipPath18)" />
      <path
         id="path19"
         d="M 0,0 -563.471,-3.286 0,-4.518 Z m -657.433,-29.166 629.236,-3.284 -629.236,-6.984 z M 0,-47.649 -305.826,-50.525 0,-53.811 Z m -657.433,-9.216 337.939,-4.13 -337.939,-6.197 z m 0,80.073 L 0,21.154 v -6.162 l -657.433,-2.876 z"
         style="fill:#6eced1;fill-opacity:1;fill-rule:evenodd;stroke:none"
         transform="matrix(1.3333333,0,0,-1.3333333,877.91147,709.10813)"
         clip-path="url(#clipPath20)" />
      <g
         opacity="0.210007"
         id="g22"
         clip-path="url(#clipPath23)">
        <path
           d="M 220.631,164.259 H 284.78 V 38.942 h -64.149 z m 197.705,0 h 22.083 V 38.942 h -22.083 z m 135.657,0 h 58.891 V 38.942 h -58.891 z m -512.136,0 h 80.974 V 38.942 H 41.857 Z"
           style="fill:#ffffff;fill-opacity:1;fill-rule:evenodd;stroke:none"
           transform="matrix(1.3333333,0,0,-1.3333333,0,880)"
           clip-path="url(#clipPath21)"
           id="path22" />
      </g>
      <path
         id="path24"
         d="m 0,0 v -77.721 h -657.433 v 68.854 c 12.007,-1.94 22.483,-8.447 29.59,-17.683 8.287,4.617 17.83,7.253 27.991,7.253 29.95,0 54.556,-22.867 57.32,-52.093 0.381,0.018 0.762,0.027 1.147,0.027 4.478,0 8.705,-1.077 12.435,-2.986 -0.585,3.191 -0.893,6.479 -0.893,9.837 0,29.92 24.255,54.176 54.176,54.176 23.531,0 43.553,-15.004 51.033,-35.967 5.334,2.864 11.43,4.49 17.909,4.49 12.921,0 24.33,-6.466 31.173,-16.337 8.723,16.531 26.078,27.8 46.067,27.8 21.207,0 39.447,-12.679 47.562,-30.871 3.809,1.596 7.991,2.477 12.38,2.477 7.661,0 14.694,-2.688 20.209,-7.168 2.74,3.259 5.949,6.112 9.522,8.455 -0.187,1.693 -0.286,3.411 -0.286,5.152 0,25.626 20.774,46.402 46.4,46.402 17.816,0 33.284,-10.044 41.06,-24.774 2.138,16.851 16.526,29.881 33.956,29.881 18.907,0 34.233,-15.325 34.233,-34.232 0,-1.42 -0.089,-2.821 -0.257,-4.195 8.757,6.875 19.798,10.977 31.797,10.977 1.383,0 2.756,-0.057 4.114,-0.165 7.867,16.875 24.977,28.57 44.824,28.57 C -2.636,0.159 -1.312,0.105 0,0"
         style="fill:#597227;fill-opacity:1;fill-rule:evenodd;stroke:none"
         transform="matrix(1.3333333,0,0,-1.3333333,877.91147,776.3724)"
         clip-path="url(#clipPath25)" />
    </g>
  </g>
</svg>
